<svg width="40" height="40" viewBox="0 0 40 40" fill="none" xmlns="http://www.w3.org/2000/svg">
<g id="Logo">
<circle id="Container" cx="20" cy="20" r="20" fill="url(#paint0_linear_523_2276)"/>
<path id="Elements" d="M29.3497 14.5904C28.4827 13.7201 27.0769 13.7201 26.2098 14.5904L20.8928 19.9269L18.1498 9.65218C17.8324 8.46342 16.615 7.75796 15.4306 8.07648C14.2461 8.39501 13.5433 9.61691 13.8606 10.8057L17.2672 23.5658L13.6503 27.1959C12.7832 28.0662 12.7832 29.4771 13.6503 30.3473C14.5173 31.2176 15.9231 31.2176 16.7902 30.3473L29.3497 17.7418C30.2168 16.8715 30.2168 15.4606 29.3497 14.5904Z" fill="url(#paint1_linear_523_2276)"/>
</g>
<defs>
<linearGradient id="paint0_linear_523_2276" x1="20" y1="0" x2="20" y2="40" gradientUnits="userSpaceOnUse">
<stop stop-color="#1E50FF"/>
<stop offset="1" stop-color="#5699FF"/>
</linearGradient>
<linearGradient id="paint1_linear_523_2276" x1="21.5" y1="8" x2="21.5" y2="31" gradientUnits="userSpaceOnUse">
<stop stop-color="white"/>
<stop offset="1" stop-color="white" stop-opacity="0"/>
</linearGradient>
</defs>
</svg>
