<svg width="57" height="44" viewBox="0 0 57 44" fill="none" xmlns="http://www.w3.org/2000/svg">
<path id="Vector" d="M17.2542 39.6712C12.3222 44.6138 3.9693 44.5942 1.63655 38.0067C1.17984 36.717 0.814672 35.3909 0.546095 34.0378C-0.550498 28.5128 0.0123139 22.7863 2.16336 17.5819C4.31441 12.3777 7.95707 7.92953 12.6307 4.79997C17.3044 1.6704 22.7992 -2.41299e-07 28.4201 0C34.0411 2.41299e-07 39.5358 1.6704 44.2094 4.79997C48.8831 7.92953 52.5257 12.3777 54.6768 17.5821C56.8279 22.7863 57.3906 28.5128 56.2941 34.0378C56.0255 35.3909 55.6603 36.717 55.2035 38.0067C52.8708 44.5942 44.5179 44.6138 39.5859 39.6712L31.9726 32.0415C31.2452 31.3126 31.3204 30.1104 31.521 29.0994C31.6429 28.4849 31.5803 27.8478 31.341 27.2688C31.1017 26.6898 30.6965 26.1949 30.1766 25.8468C29.6567 25.4988 29.0454 25.3129 28.4201 25.3129C27.7948 25.3129 27.1836 25.4988 26.6636 25.8468C26.1435 26.1949 25.7384 26.6898 25.4991 27.2688C25.2598 27.8478 25.1972 28.4849 25.3192 29.0994C25.5199 30.1104 25.5949 31.3126 24.8675 32.0415L17.2542 39.6712Z" fill="url(#paint0_linear_523_2321)"/>
<defs>
<linearGradient id="paint0_linear_523_2321" x1="54.2532" y1="14.2407" x2="3.80758" y2="14.2407" gradientUnits="userSpaceOnUse">
<stop stop-color="#64C2DB"/>
<stop offset="0.510417" stop-color="#7476ED"/>
<stop offset="1" stop-color="#E56F8C"/>
</linearGradient>
</defs>
</svg>
