<svg width="48" height="24" viewBox="0 0 48 24" fill="none" xmlns="http://www.w3.org/2000/svg">
<path id="Vector" d="M47.1714 23.2691C47.1714 17.0977 44.7198 11.1791 40.356 6.81534C35.9922 2.45156 30.0736 8.09273e-07 23.9023 0C17.731 -8.09271e-07 11.8125 2.45156 7.44867 6.81534C3.08486 11.1791 0.633301 17.0977 0.633301 23.2691H7.90497C10.3146 23.2691 12.1938 21.2498 13.0764 19.0075C13.6558 17.5354 14.5351 16.1826 15.6754 15.0422C17.8573 12.8603 20.8167 11.6345 23.9023 11.6345C26.988 11.6345 29.9473 12.8603 32.1292 15.0422C34.3111 17.2241 35.5368 20.1834 35.5368 23.2691H47.1714Z" fill="url(#paint0_linear_523_2316)"/>
<defs>
<linearGradient id="paint0_linear_523_2316" x1="47.1714" y1="11.6345" x2="0.633301" y2="11.6345" gradientUnits="userSpaceOnUse">
<stop stop-color="#73E5E2"/>
<stop offset="1" stop-color="#394F87"/>
</linearGradient>
</defs>
</svg>
