<svg width="47" height="24" viewBox="0 0 47 24" fill="none" xmlns="http://www.w3.org/2000/svg">
<path id="Vector" d="M0 0.268799C-4.37149e-07 3.3246 0.601871 6.3504 1.77125 9.17355C2.94063 11.9967 4.6546 14.5618 6.81534 16.7226C8.97606 18.8832 11.5412 20.5972 14.3643 21.7666C17.1875 22.936 20.2132 23.5378 23.2691 23.5378C26.3247 23.5378 29.3505 22.936 32.1737 21.7666C34.9968 20.5972 37.562 18.8832 39.7227 16.7226C41.8834 14.5618 43.5974 11.9967 44.7668 9.17355C45.9361 6.3504 46.5381 3.3246 46.5381 0.268799H39.2664C36.8568 0.268799 34.9776 2.2881 34.095 4.53015C34.07 4.59405 34.0442 4.65765 34.0179 4.72125C33.4332 6.13275 32.5762 7.4154 31.4958 8.4957C30.4155 9.576 29.1329 10.4331 27.7213 11.0178C26.3098 11.6025 24.7969 11.9034 23.2691 11.9034C21.7411 11.9034 20.2283 11.6025 18.8167 11.0178C17.4051 10.4331 16.1226 9.576 15.0422 8.4957C13.9618 7.4154 13.1048 6.13275 12.5201 4.72125C11.9354 3.3096 11.6345 1.7967 11.6345 0.268799H0Z" fill="url(#paint0_linear_523_2318)"/>
<defs>
<linearGradient id="paint0_linear_523_2318" x1="1.52568e-06" y1="11.9034" x2="46.5381" y2="11.9034" gradientUnits="userSpaceOnUse">
<stop stop-color="#FBDC8E"/>
<stop offset="1" stop-color="#FB958E"/>
</linearGradient>
</defs>
</svg>
